<svg xmlns="http://www.w3.org/2000/svg" viewBox="-20 -30 400 200" width="800" height="400" font-family="sans-serif">
  <g transform="translate(0 120) rotate(0)"><polygon points="0,0 -7,11.2 7,11.2" fill="#666" stroke="#444"/><line x1="-8.4" y1="14.2" x2="8.4" y2="14.2" stroke="#9ca3af" stroke-width="2"/></g><g transform="translate(300 120) rotate(0)"><polygon points="0,0 -7,11.2 7,11.2" fill="#666" stroke="#444"/><line x1="-8.4" y1="18.12" x2="8.4" y2="18.12" stroke="#9ca3af" stroke-width="2"/><circle cx="-3.9200000000000004" cy="13.16" r="1.9600000000000002" fill="#9ca3af"/><circle cx="3.9200000000000004" cy="13.16" r="1.9600000000000002" fill="#9ca3af"/></g>
  <line x1="0" y1="120" x2="100" y2="120" stroke="#3b82f6" stroke-width="2.5" stroke-linecap="round"/><line x1="100" y1="120" x2="200" y2="120" stroke="#3b82f6" stroke-width="2.5" stroke-linecap="round"/><line x1="200" y1="120" x2="300" y2="120" stroke="#3b82f6" stroke-width="2.5" stroke-linecap="round"/><line x1="50" y1="60" x2="150" y2="60" stroke="#ef4444" stroke-width="2.5" stroke-linecap="round"/><line x1="150" y1="60" x2="250" y2="60" stroke="#ef4444" stroke-width="2.5" stroke-linecap="round"/><line x1="0" y1="120" x2="50" y2="60" stroke="#a855f7" stroke-width="2.5" stroke-linecap="round"/><line x1="50" y1="60" x2="100" y2="120" stroke="#a855f7" stroke-width="2.5" stroke-linecap="round"/><line x1="100" y1="120" x2="150" y2="60" stroke="#a855f7" stroke-width="2.5" stroke-linecap="round"/><line x1="150" y1="60" x2="200" y2="120" stroke="#a855f7" stroke-width="2.5" stroke-linecap="round"/><line x1="200" y1="120" x2="250" y2="60" stroke="#a855f7" stroke-width="2.5" stroke-linecap="round"/><line x1="250" y1="60" x2="300" y2="120" stroke="#a855f7" stroke-width="2.5" stroke-linecap="round"/>
  <circle cx="0" cy="120" r="5" fill="#1e293b" stroke="#fff" stroke-width="1"/><circle cx="100" cy="120" r="5" fill="#1e293b" stroke="#fff" stroke-width="1"/><circle cx="200" cy="120" r="5" fill="#1e293b" stroke="#fff" stroke-width="1"/><circle cx="300" cy="120" r="5" fill="#1e293b" stroke="#fff" stroke-width="1"/><circle cx="50" cy="60" r="5" fill="#1e293b" stroke="#fff" stroke-width="1"/><circle cx="150" cy="60" r="5" fill="#1e293b" stroke="#fff" stroke-width="1"/><circle cx="250" cy="60" r="5" fill="#1e293b" stroke="#fff" stroke-width="1"/>
  <text x="0" y="120" fill="#fff" font-size="11" font-weight="bold" font-family="sans-serif" text-anchor="middle" dominant-baseline="middle" stroke="#111" stroke-width="2" paint-order="stroke">A</text><text x="100" y="120" fill="#fff" font-size="11" font-weight="bold" font-family="sans-serif" text-anchor="middle" dominant-baseline="middle" stroke="#111" stroke-width="2" paint-order="stroke">B</text><text x="200" y="120" fill="#fff" font-size="11" font-weight="bold" font-family="sans-serif" text-anchor="middle" dominant-baseline="middle" stroke="#111" stroke-width="2" paint-order="stroke">C</text><text x="300" y="120" fill="#fff" font-size="11" font-weight="bold" font-family="sans-serif" text-anchor="middle" dominant-baseline="middle" stroke="#111" stroke-width="2" paint-order="stroke">D</text><text x="50" y="60" fill="#fff" font-size="11" font-weight="bold" font-family="sans-serif" text-anchor="middle" dominant-baseline="middle" stroke="#111" stroke-width="2" paint-order="stroke">E</text><text x="150" y="60" fill="#fff" font-size="11" font-weight="bold" font-family="sans-serif" text-anchor="middle" dominant-baseline="middle" stroke="#111" stroke-width="2" paint-order="stroke">F</text><text x="250" y="60" fill="#fff" font-size="11" font-weight="bold" font-family="sans-serif" text-anchor="middle" dominant-baseline="middle" stroke="#111" stroke-width="2" paint-order="stroke">G</text>
  <line x1="100" y1="120" x2="115" y2="120" stroke="#2563eb" stroke-width="1.8"/><polygon points="115,120 110,123 110,117" fill="#2563eb" stroke="none"/><text x="118" y="120" fill="#2563eb" font-size="9" font-family="sans-serif" text-anchor="start" dominant-baseline="middle">1</text><line x1="100" y1="120" x2="100" y2="105" stroke="#16a34a" stroke-width="1.8"/><polygon points="100,105 103,110 97,110" fill="#16a34a" stroke="none"/><text x="103" y="102" fill="#16a34a" font-size="9" font-family="sans-serif" text-anchor="start" dominant-baseline="middle">2</text><line x1="200" y1="120" x2="215" y2="120" stroke="#2563eb" stroke-width="1.8"/><polygon points="215,120 210,123 210,117" fill="#2563eb" stroke="none"/><text x="218" y="120" fill="#2563eb" font-size="9" font-family="sans-serif" text-anchor="start" dominant-baseline="middle">3</text><line x1="200" y1="120" x2="200" y2="105" stroke="#16a34a" stroke-width="1.8"/><polygon points="200,105 203,110 197,110" fill="#16a34a" stroke="none"/><text x="203" y="102" fill="#16a34a" font-size="9" font-family="sans-serif" text-anchor="start" dominant-baseline="middle">4</text><line x1="300" y1="120" x2="315" y2="120" stroke="#2563eb" stroke-width="1.8"/><polygon points="315,120 310,123 310,117" fill="#2563eb" stroke="none"/><text x="318" y="120" fill="#2563eb" font-size="9" font-family="sans-serif" text-anchor="start" dominant-baseline="middle">5</text><line x1="50" y1="60" x2="65" y2="60" stroke="#2563eb" stroke-width="1.8"/><polygon points="65,60 60,63 60,57" fill="#2563eb" stroke="none"/><text x="68" y="60" fill="#2563eb" font-size="9" font-family="sans-serif" text-anchor="start" dominant-baseline="middle">6</text><line x1="50" y1="60" x2="50" y2="45" stroke="#16a34a" stroke-width="1.8"/><polygon points="50,45 53,50 47,50" fill="#16a34a" stroke="none"/><text x="53" y="42" fill="#16a34a" font-size="9" font-family="sans-serif" text-anchor="start" dominant-baseline="middle">7</text><line x1="150" y1="60" x2="165" y2="60" stroke="#2563eb" stroke-width="1.8"/><polygon points="165,60 160,63 160,57" fill="#2563eb" stroke="none"/><text x="168" y="60" fill="#2563eb" font-size="9" font-family="sans-serif" text-anchor="start" dominant-baseline="middle">8</text><line x1="150" y1="60" x2="150" y2="45" stroke="#16a34a" stroke-width="1.8"/><polygon points="150,45 153,50 147,50" fill="#16a34a" stroke="none"/><text x="153" y="42" fill="#16a34a" font-size="9" font-family="sans-serif" text-anchor="start" dominant-baseline="middle">9</text><line x1="250" y1="60" x2="265" y2="60" stroke="#2563eb" stroke-width="1.8"/><polygon points="265,60 260,63 260,57" fill="#2563eb" stroke="none"/><text x="268" y="60" fill="#2563eb" font-size="9" font-family="sans-serif" text-anchor="start" dominant-baseline="middle">10</text><line x1="250" y1="60" x2="250" y2="45" stroke="#16a34a" stroke-width="1.8"/><polygon points="250,45 253,50 247,50" fill="#16a34a" stroke="none"/><text x="253" y="42" fill="#16a34a" font-size="9" font-family="sans-serif" text-anchor="start" dominant-baseline="middle">11</text><line x1="0" y1="120" x2="15" y2="120" stroke="#6b7280" stroke-width="1.8"/><polygon points="15,120 10,123 10,117" fill="#6b7280" stroke="none"/><text x="18" y="120" fill="#6b7280" font-size="9" font-family="sans-serif" text-anchor="start" dominant-baseline="middle">12</text><line x1="0" y1="120" x2="0" y2="105" stroke="#6b7280" stroke-width="1.8"/><polygon points="0,105 3,110 -3,110" fill="#6b7280" stroke="none"/><text x="3" y="102" fill="#6b7280" font-size="9" font-family="sans-serif" text-anchor="start" dominant-baseline="middle">13</text><line x1="300" y1="120" x2="300" y2="105" stroke="#6b7280" stroke-width="1.8"/><polygon points="300,105 303,110 297,110" fill="#6b7280" stroke="none"/><text x="300" y="102" fill="#6b7280" font-size="9" font-family="sans-serif" text-anchor="start" dominant-baseline="middle">14</text>
</svg>